<?xml version="1.0" encoding="UTF-8"?>
<!DOCTYPE svg PUBLIC "-//W3C//DTD SVG 1.0//EN" "http://www.w3.org/TR/2001/REC-SVG-20010904/DTD/svg10.dtd">
<!-- Creator: CorelDRAW -->
<svg xmlns="http://www.w3.org/2000/svg" xml:space="preserve" width="1400px" height="700px" version="1.0" style="shape-rendering:geometricPrecision; text-rendering:geometricPrecision; image-rendering:optimizeQuality; fill-rule:evenodd; clip-rule:evenodd"
viewBox="0 0 1400 700"
 xmlns:xlink="http://www.w3.org/1999/xlink"
 xmlns:xodm="http://www.corel.com/coreldraw/odm/2003">
 <defs>
  <style type="text/css">
   <![CDATA[
    .fil0 {fill:#3C619D}
    .fil1 {fill:#CF442C}
   ]]>
  </style>
 </defs>
 <g id="Layer_x0020_1">
  <metadata id="CorelCorpID_0Corel-Layer"/>
  <g id="_105553138128768">
   <path class="fil0" d="M309.1 532.09l1.09 -0.86c1.19,-0.55 3.08,-0.87 3.86,-1.25l12.82 -4.85c0.96,-0.3 1.93,-0.79 2.97,-1.16l11.99 -4.59c0.89,-0.35 0.58,0.04 1.91,-0.57 1.23,-0.56 0.27,0.11 1.4,-0.62 0.31,-0.19 -0.01,-0.03 0.37,-0.21l2.32 -0.91c0.35,-0.14 0.27,-0.18 0.6,-0.32 0.5,-0.21 0.46,-0.09 0.95,-0.24 0.67,-0.2 0.39,-0.36 1.39,-0.65 1.24,-0.36 1.7,-0.95 2.8,-1.29l7.36 -2.97c0.34,-0.26 -0.02,-0.06 0.52,-0.41l9.38 -4.19c0.82,-0.42 1.31,-0.41 2.89,-1.25l8.46 -3.97c0.42,-0.24 0,-0.07 0.56,-0.36l3.62 -1.66c0.47,-0.22 0.88,-0.48 1.33,-0.74l10.95 -5.62c1.04,-0.49 1.86,-1.22 2.93,-1.24l6.64 -4.23c0.42,-0.27 0.16,-0.09 0.62,-0.32 0.66,-0.33 0.54,-0.37 1.08,-0.67 0.1,-1.16 1.62,-1.24 3.13,-2.47l10.44 -6.5c0.91,-0.57 0.54,-0.01 1.5,-0.76l1.29 -0.82c1.18,-0.59 0.82,-0.72 1.69,-1.14l1.06 -0.59c0.03,-0.02 0.07,-0.06 0.1,-0.08 0.88,-0.66 2.17,-1.71 3.02,-2.09l3.47 -2c1,-0.56 0.52,-0.37 1.36,-1.03 0.16,-0.12 0.22,-0.16 0.33,-0.24 0.7,-0.53 0.9,-0.62 1.7,-1.11l22.36 -14.33c1.46,-0.91 2.38,-1.85 3.62,-1.81 0.4,-0.67 1.21,-0.93 1.87,-1.36 2.53,-1.64 6.32,-4.33 8.47,-6.22l3.38 -2.63c0.24,-0.21 0.18,-0.18 0.5,-0.44l25.14 -21.16 11.32 -10.5c1.83,-1.28 11.47,-11.31 13.35,-13.18l5.62 -6.04c0.37,-0.33 0.51,-0.44 0.84,-0.86l5.79 -6.44c1.58,-1.56 2.84,-3.33 4.37,-4.85l2.3 -2.59c0.03,-0.03 0.06,-0.08 0.08,-0.11l6.7 -7.98c0.33,-0.37 0.46,-0.56 0.76,-0.94 0.51,-0.64 0.94,-1.26 1.48,-1.9l1.85 -2.28c0.16,-0.19 0.27,-0.28 0.45,-0.5l15.08 -19.92c0.19,-0.23 0.47,-0.59 0.65,-0.86l1.01 -1.43c1.24,-1.48 3.96,-5.58 5.18,-7.43l3.57 -5.27c0.02,-0.04 0.05,-0.08 0.07,-0.11 0.16,-0.22 0.24,-0.35 0.39,-0.56l5.2 -7.97c0.24,-0.38 0.43,-0.66 0.67,-1.03l1.31 -2.07c0.14,-0.21 0.16,-0.22 0.31,-0.44 0.21,-0.33 0.15,-0.28 0.35,-0.6l4.77 -7.83c0.16,-0.26 0.06,-0.08 0.22,-0.34l2.49 -4.1c1.16,-1.76 1.98,-3.73 3.13,-5.53l0.61 -1.07c0.02,-0.04 0.05,-0.09 0.07,-0.13 0.02,-0.04 0.05,-0.08 0.07,-0.12l1.6 -2.72c0.25,-0.46 0.35,-0.67 0.59,-1.11l4.7 -8.66c0.22,-0.34 0.44,-0.74 0.61,-1.08 0.18,-0.36 0.07,-0.18 0.23,-0.53l1.82 -3.44c0.08,-0.18 0.07,-0.21 0.15,-0.42 0.19,-0.47 0.32,-0.65 0.58,-1.11 0.03,-0.04 0.11,-0.18 0.14,-0.23l0.16 -0.22c0.02,-0.03 0.06,-0.08 0.08,-0.11 0.02,-0.03 0.06,-0.08 0.08,-0.11l1.06 -2.14c0.07,-0.15 0.18,-0.33 0.2,-0.36l2.2 -4.39c0.13,-0.25 0.1,-0.27 0.23,-0.52 0.22,-0.44 0.13,-0.17 0.35,-0.59l2.17 -4.61c0.02,-0.04 0.04,-0.09 0.05,-0.13 0.02,-0.04 0.04,-0.09 0.06,-0.13l1.16 -2.42c0.18,-0.46 -0.09,0.17 0.1,-0.27 0.14,-0.32 0.03,-0.08 0.19,-0.38l6.49 -14.21c0.22,-0.52 0.11,-0.16 0.32,-0.62l0.73 -1.71c0.02,-0.04 0.04,-0.09 0.05,-0.14l3.63 -8.79c0.78,-1.51 1.29,-3.08 1.8,-4.6l5.15 -13.28c0.4,-1.32 1.13,-2.18 1.34,-3.56 0.15,-1 0.04,-0.55 0.37,-1.32 0.43,-1 0.23,-1.83 0.64,-2.75 0.48,-1.11 0.4,-1.7 0.12,-2.89 -0.65,0.17 -0.9,0.97 -1.21,1.62l-2.8 4.91c-0.51,0.82 -0.95,1.32 -1.46,2.11l-6.96 10.35c-0.02,0.04 -0.05,0.09 -0.07,0.12l-6.85 9.52c-1.69,2.47 -3.7,4.73 -5.43,7.18l-0.46 0.66c-0.03,0.04 -0.06,0.08 -0.09,0.11 -0.02,0.03 -0.06,0.07 -0.09,0.1l-11.76 15.14c-0.03,0.03 -0.07,0.07 -0.09,0.1l-2.35 2.92c-0.24,0.28 -0.25,0.28 -0.44,0.5l-3.61 4.48c-0.03,0.03 -0.07,0.06 -0.1,0.09l-17.69 20.88c-0.02,0.03 -0.06,0.07 -0.09,0.1l-6.95 7.73c-1.57,1.63 -1.71,2.03 -2.43,2.84l-2.38 2.5c-3.13,3.22 -6.62,7.49 -9.74,10.4l-2.3 2.41c-0.03,0.02 -0.06,0.06 -0.09,0.09l-3.8 3.92c-2.05,2.06 -4.28,4.03 -6.2,6.21 -0.36,0.4 -0.46,0.62 -0.84,1.05l-14.37 14.04c-0.39,0.42 -0.41,0.43 -0.85,0.85l-18.54 17.21c-0.02,0.03 -0.06,0.07 -0.09,0.09l-5.58 4.96c-0.38,0.33 -0.56,0.59 -0.95,0.93 -0.21,0.18 -0.25,0.19 -0.42,0.34l-6 5.29c-0.04,0.03 -0.15,0.14 -0.19,0.18l-15.52 13.08c-0.03,0.03 -0.07,0.07 -0.09,0.1 -0.03,0.02 -0.07,0.06 -0.1,0.09 -1.7,1.6 -3.65,3.05 -5.47,4.5 -0.03,0.02 -0.08,0.06 -0.11,0.08l-2.88 2.38c-0.03,0.03 -0.07,0.07 -0.1,0.1 -0.03,0.02 -0.07,0.06 -0.09,0.09l-9.24 7.32c-0.03,0.03 -0.08,0.06 -0.11,0.09l-12.74 9.83c-0.74,0.55 -1.32,1.03 -2.02,1.56l-10.24 7.63c-0.29,0.27 -0.08,0.09 -0.42,0.34l-4.09 2.87c-0.03,0.02 -0.07,0.06 -0.1,0.09 -1.14,1 -2.48,1.78 -3.72,2.67 -0.76,0.53 -1.27,1.01 -2.07,1.51 -0.44,0.28 -0.65,0.42 -1.01,0.68l-0.63 0.49c-0.04,0.03 -0.08,0.06 -0.11,0.09 -0.03,0.02 -0.08,0.05 -0.11,0.08 -0.03,0.02 -0.08,0.05 -0.11,0.07 -0.04,0.02 -0.09,0.05 -0.12,0.07 -0.04,0.02 -0.08,0.05 -0.12,0.07l-1.42 1.02c-0.03,0.03 -0.08,0.06 -0.11,0.08l-0.35 0.22c-0.03,0.02 -0.08,0.05 -0.12,0.07l-14.72 10.12c-0.54,0.35 -0.5,0.23 -1.03,0.66l-8.61 5.69c-0.3,0.2 -0.24,0.18 -0.57,0.37l-1.83 1.18c-0.04,0.02 -0.08,0.05 -0.12,0.07l-12.78 8.1c-0.04,0.02 -0.09,0.04 -0.13,0.06 -0.04,0.02 -0.09,0.05 -0.12,0.07 -0.04,0.02 -0.09,0.05 -0.12,0.07 -0.03,0.02 -0.08,0.05 -0.11,0.07l-12.89 7.81c-0.31,0.18 -0.28,0.19 -0.57,0.38 -0.03,0.02 -0.08,0.05 -0.11,0.07 -0.04,0.02 -0.09,0.05 -0.12,0.07l-4.52 2.63c-0.03,0.02 -0.08,0.05 -0.12,0.07l-6.05 3.54c-0.11,0.08 -0.03,0.06 -0.34,0.23l-2.76 1.57c-0.03,0.02 -0.08,0.05 -0.12,0.07 -0.27,0.17 -0.11,0.09 -0.46,0.29 -0.26,0.13 -0.4,0.18 -0.64,0.3l-20.19 11.05c-0.32,0.18 -0.27,0.14 -0.6,0.33l-1.26 0.63c-0.28,0.16 -0.07,0.08 -0.46,0.29l-8.94 4.61c-0.22,0.11 -0.3,0.13 -0.51,0.24 -0.35,0.18 -0.27,0.17 -0.59,0.35l-3.62 1.83c-0.51,0.29 -0.61,0.3 -1.15,0.55l-3 1.52c-4.11,2.12 -9.31,4.3 -13.22,6.35l-5.5 2.59c-0.04,0.02 -0.09,0.04 -0.13,0.05l-2.56 1.21c-0.04,0.02 -0.09,0.04 -0.13,0.06l-0.38 0.19c-0.03,0.01 -0.08,0.05 -0.11,0.07 -0.4,0.21 0.03,0.01 -0.38,0.19l-3.67 1.6c-0.41,0.18 -0.69,0.34 -1.27,0.61 -0.13,0.06 -0.45,0.23 -0.5,0.25l-18.76 8.15c-0.22,0.09 -0.37,0.12 -0.67,0.27 -0.44,0.21 -0.12,0.1 -0.49,0.26l-30.18 11.96c-0.67,0.23 -0.62,0.11 -1.29,0.41l-15.76 5.69c-0.92,0.22 -0.78,0.35 -1.36,0.52l-5.35 1.8c-0.85,0.45 -0.39,0.15 -1.31,0.39 -0.69,0.17 -0.57,0.34 -1.37,0.51l-2.71 0.86c-0.63,0.22 -0.31,0.29 -1.24,0.46 -0.45,0.08 -0.45,0.04 -0.78,0.16 -0.68,0.24 -0.03,0.03 -0.61,0.32l-2.11 0.72c-0.04,0.02 -0.09,0.03 -0.14,0.05l-7.21 2.19c-0.58,0.17 -0.44,0.31 -1.36,0.53l-5.47 1.67c-0.78,0.36 -0.35,0.22 -1.32,0.38 -1.01,0.18 -0.53,0.29 -1.37,0.51l-2.8 0.78c-0.97,0.17 -0.58,0.11 -1.3,0.39 -1.28,0.52 -5.2,1.4 -6.95,2.08 -0.66,0.25 -0.77,0.08 -1.42,0.28l-2.03 0.6c-1.07,0.22 -0.98,0.5 -2.19,0.64 -0.9,0.1 -0.58,0.17 -1.27,0.41 -0.53,0.19 -1.05,0.16 -1.56,0.32 -0.69,0.22 -0.4,0.31 -1.21,0.49 -0.87,0.2 -0.72,-0.02 -1.55,0.33l-8.42 2.31c-0.68,0.15 -0.88,0.04 -1.45,0.24l-8.44 2.28c-0.73,0.29 -0.81,0.09 -1.62,0.27 -0.6,0.12 -0.8,0.33 -1.26,0.43 -0.61,0.13 -1.06,0.11 -1.63,0.25 -0.66,0.16 -0.68,0.33 -1.23,0.47 -0.62,0.17 -1.02,0.02 -1.68,0.2 -0.67,0.18 -0.58,0.29 -1.26,0.43 -0.55,0.11 -1.08,0.12 -1.62,0.26 -0.52,0.13 -0.75,0.37 -1.23,0.47 -0.75,0.14 -0.99,-0.02 -1.68,0.2l-2.93 0.65c-0.52,0.12 -0.73,0.36 -1.23,0.46 -0.74,0.15 -0.99,-0.01 -1.67,0.21l-2.96 0.62c-0.74,0.12 -0.62,0.29 -1.23,0.46 -0.61,0.16 -1.09,0.01 -1.73,0.15 -0.56,0.12 -0.8,0.33 -1.25,0.44 -0.57,0.14 -1.09,0.18 -1.65,0.23 -1.03,0.11 -0.57,0.09 -1.31,0.39 -0.75,0.3 -2.01,0.24 -3.01,0.57 -0.81,0.26 -2.21,0.29 -3.02,0.55 -0.85,0.28 -2.1,0.31 -2.91,0.66l-2.73 0.85c-0.67,0.26 -0.87,0.1 -1.57,0.31 -0.82,0.23 -0.33,0.25 -1.2,0.49l-4.27 1.19c-0.57,0.21 -0.78,0.16 -1.4,0.29 -0.73,0.15 -0.8,0.36 -1.39,0.49l-5.71 1.45c-1.25,0.29 -1.32,0.67 -2.9,0.67 -0.02,0.05 -0.05,0.06 -0.06,0.13l-0.14 0.23c-0.41,0.58 -0.45,0.06 -0.55,0.96 0.82,-0.02 0.77,-0.17 1.69,-0.19 4.69,-0.14 9.42,0 14.12,0 2.88,0 5.08,-0.19 7.9,-0.19 1.54,0.01 2.38,-0.2 3.76,-0.19 1.94,0.01 3.82,0.23 5.63,-0.01 0.85,-0.12 0.64,-0.35 1.6,-0.25 1.46,0.15 2.13,-0.3 3.68,-0.3l5.72 -0.08c0.81,0.05 0.53,-0.21 1.62,-0.29 2.79,-0.21 5.62,-0.14 8.43,-0.59 2.87,-0.47 5.77,-0.31 7.62,-0.67 0.56,-0.12 1.32,-0.22 1.83,-0.25 1.42,-0.06 2.3,-0.12 3.77,-0.19 1.12,-0.04 2.13,-0.5 3.38,-0.56l10.11 -0.98c0.49,-0.13 0.26,-0.03 0.7,-0.12 1.83,-0.36 3.12,-0.12 5.33,-0.64 1.59,-0.37 3.75,-0.21 5.33,-0.69 0.91,-0.28 2.65,-0.25 3.74,-0.4l5.23 -0.79c0.55,-0.17 1.17,-0.28 1.75,-0.32l7.1 -0.99c0.93,-0.27 2.54,-0.33 3.46,-0.49 0.94,-0.17 0.8,-0.28 1.66,-0.41l5.25 -0.77c1.16,-0.07 2.17,-0.56 3.26,-0.69 0.72,-0.09 1.07,0.02 1.71,-0.18 0.73,-0.23 0.65,-0.39 1.63,-0.43 1.82,-0.08 1.97,-0.39 3.49,-0.66 0.64,-0.11 1.12,-0.04 1.74,-0.14 0.62,-0.1 0.93,-0.41 1.57,-0.5 0.8,-0.11 1.21,-0.01 1.86,-0.2 0.76,-0.23 0.63,-0.29 1.63,-0.45 0.37,-0.06 1.21,-0.07 1.7,-0.17 0.71,-0.15 0.62,-0.43 1.56,-0.51 1.92,-0.17 2.1,-0.54 3.43,-0.72 0.88,-0.11 0.92,0.04 1.65,-0.22 0.82,-0.3 0.58,-0.32 1.69,-0.39 0.83,-0.06 1.05,-0.16 1.69,-0.37 0.95,-0.33 2.38,-0.42 3.2,-0.76 0.75,-0.3 0.93,-0.1 1.81,-0.25 0.76,-0.14 0.95,-0.33 1.57,-0.51 0.66,-0.18 1.1,-0.1 1.82,-0.25 0.72,-0.16 0.72,-0.36 1.42,-0.46l5.05 -1.16c0.63,-0.23 0.86,-0.13 1.59,-0.29 0.99,-0.23 0.51,-0.3 1.55,-0.52 0.5,-0.1 1.27,-0.13 1.78,-0.29l15.72 -4.22c0.64,-0.22 1.07,-0.11 1.73,-0.34l9.46 -2.78c1.06,-0.57 3.25,-0.83 4.58,-1.44 0.72,-0.34 1.49,-0.32 2.33,-0.68l5.56 -1.59c1.04,-0.23 0.54,-0.33 1.33,-0.56l3.29 -0.84c0.66,-0.21 0.73,-0.42 1.53,-0.53 1.19,-0.18 0.81,-0.26 1.73,-0.54l4.56 -1.19z"/>
   <path class="fil1" d="M409.91 486.94c0.74,0.07 0.69,0.25 1.34,0.47 0.58,0.2 0.95,0.21 1.45,0.44l10.38 4.3c3.42,1.46 6.74,3.36 9.95,5.28l1.49 0.97c0.03,0.02 0.08,0.05 0.11,0.07 0.04,0.02 0.08,0.05 0.12,0.07l0.35 0.21c0.45,0.27 0.16,0.07 0.57,0.37l1.74 1.09c0.36,0.23 0.23,0.18 0.54,0.4l5.82 4.15c0.03,0.02 0.08,0.06 0.11,0.08l9.11 7.64c2.53,2.46 5.54,4.64 7.75,7.49l3.72 3.99c0.37,0.37 0.58,0.59 0.92,0.96l2.25 2.46c0.15,0.17 0.26,0.32 0.4,0.54 1.18,1.72 3.85,4.43 5.24,6.24 0.58,0.76 1.1,1.47 1.71,2.24l2.85 3.74c0.19,0.25 0.25,0.38 0.46,0.67l3.86 5.54c0.31,0.42 0.11,0.14 0.37,0.57l5.66 8.83c0.02,0.03 0.05,0.08 0.08,0.11l2.71 4.62c0.25,0.5 0.38,0.69 0.67,1.22l3.43 6.35c0.02,0.04 0.04,0.09 0.06,0.13l0.47 0.85c0.02,0.04 0.04,0.09 0.06,0.13 0.01,0.04 0.03,0.1 0.05,0.13l2.33 4.64c0.73,1.29 1.17,2.85 2.27,3.94 0.43,0.43 0.61,0.58 1.08,0.99l1.18 0.7c1.57,0.67 3.36,0.52 5.13,0.52 5.11,0 50.26,0.22 51.54,-0.02 0.57,-0.11 0.79,-0.45 1.33,-0.74 0,-0.43 0.05,-1.29 -0.02,-1.67 -0.21,-1.21 -1.71,-3.46 -2.34,-4.62l-1.94 -3.71c-0.89,-1.33 -1.58,-2.83 -2.32,-4.26l-5.29 -9.77c-0.14,-0.29 -0.04,-0.09 -0.19,-0.37l-0.21 -0.35c-0.02,-0.04 -0.05,-0.09 -0.07,-0.12l-3.54 -6.44c-0.75,-1.53 -1.77,-2.81 -2.46,-4.3l-6.92 -12.1c-0.22,-0.38 -0.39,-0.74 -0.61,-1.07 -0.02,-0.04 -0.06,-0.08 -0.08,-0.11l-24.33 -38.14c-0.26,-0.39 -0.54,-0.7 -0.81,-1.08l-12.96 -16.01 -5.57 -5.34c-0.4,-0.36 -0.52,-0.55 -0.98,-0.91l-13.9 -10.37c-0.38,-0.25 -0.65,-0.43 -1.04,-0.66 -0.41,-0.25 -0.79,-0.52 -1.14,-0.73l-1.21 -0.68c-0.04,-0.02 -0.08,-0.05 -0.12,-0.07 -0.03,-0.02 -0.08,-0.05 -0.11,-0.07l-1.18 -0.7c-0.04,-0.02 -0.09,-0.05 -0.12,-0.07l-5.65 -3.2c-0.42,-0.27 -0.28,0.02 -0.48,-0.43 -1.24,-0.04 -2.16,0.9 -3.62,1.81l-22.36 14.33c-0.8,0.49 -1,0.58 -1.7,1.11 -0.11,0.08 -0.17,0.12 -0.33,0.24 -0.84,0.66 -0.36,0.47 -1.36,1.03l-3.47 2c-0.85,0.38 -2.14,1.43 -3.02,2.09 -0.03,0.02 -0.07,0.06 -0.1,0.08l-1.06 0.59c-0.87,0.42 -0.51,0.55 -1.69,1.14l-1.29 0.82c-0.96,0.75 -0.59,0.19 -1.5,0.76l-10.44 6.5c-1.51,1.23 -3.03,1.31 -3.13,2.47z"/>
   <path class="fil1" d="M1131.08 392.1c0,8.45 1.67,13.98 4.49,20.16 1.05,2.28 3.4,5.89 4.92,7.88 4.67,6.12 10.47,10.18 17.31,13.55 4.48,2.21 10.67,3.57 15.64,4.11 0.92,0.1 1.86,-0.05 2.77,0.05 5.67,0.64 13.81,-1.22 18.85,-3.22 17.2,-6.83 26.72,-23.79 26.72,-42.34 0,-1.73 -1.24,-3.14 -2.21,-4 -1.4,-1.24 -2.81,-1.08 -5.32,-1.08l-38.01 0 1.48 3.79c1.01,2.73 3.17,9.1 5.18,10.63 3.08,2.35 7.6,1.49 11.4,1.38l7.91 0c-0.97,4.14 -2.9,8.07 -5.86,10.9 -5.47,5.24 -11.03,7.17 -19.73,7.17 -3.87,0 -8.34,-1.34 -10.92,-2.64 -1.85,-0.93 -4.69,-2.51 -6.16,-3.99 -0.35,-0.35 -0.46,-0.5 -0.88,-0.82 -2.13,-1.63 -5.35,-6.57 -6.35,-9.08 -4.11,-10.31 -3.08,-21.26 3.55,-30.19 4.54,-6.11 12.61,-10.3 20.38,-10.3 5.64,0 9.33,0.61 13.99,2.95 10.76,5.42 8.4,8.28 22.11,-2.03 0.55,-0.42 1.01,-0.91 1.72,-1.1 -1.91,-2.85 -4.3,-4.74 -6.8,-6.75 -4.28,-3.44 -9.34,-5.85 -14.91,-7.67 -7.6,-2.49 -15.94,-2.71 -23.85,-1.42 -8.56,1.4 -15.11,5.11 -21.51,10.11l-3.54 3.23c-1.36,1.41 -3.9,4.65 -4.99,6.3 -4.56,6.82 -7.38,15.65 -7.38,24.42z"/>
   <path class="fil0" d="M324.05 351.83l0 51.56c0,1.95 1.21,3.01 3.2,3.01l46.66 0c0.85,0 1.75,-0.44 2.67,-0.53 1.97,-0.21 1.25,0 2.79,-0.6 0.93,-0.36 0.7,0.09 1.93,-0.52l5.14 -2.38c1.75,-0.86 4.38,-3.09 5.78,-4.38 0.15,-0.13 0.28,-0.24 0.4,-0.36 0.12,-0.11 0.23,-0.25 0.36,-0.39l1.5 -1.89c0.13,-0.17 0.21,-0.23 0.35,-0.4l0.43 -0.51c0.52,-0.69 0.89,-1.3 1.36,-2.02 0.2,-0.31 0.1,-0.16 0.29,-0.47l2.14 -4.63c0.24,-0.58 0.09,-0.01 0.32,-0.63 0.21,-0.59 0.06,-0.8 0.27,-1.42 0.2,-0.6 0.28,-0.44 0.46,-1.23l0.72 -7.93 -0.81 -4.83c-0.13,-0.45 -0.12,-0.24 -0.28,-0.66 -0.22,-0.56 -0.12,-0.33 -0.23,-0.91 -0.16,-0.89 -0.21,-0.65 -0.47,-1.41l-0.57 -1.49c-0.23,-0.45 -0.12,-0.28 -0.28,-0.67l-1.04 -1.97c-0.27,-0.46 -0.51,-0.75 -0.73,-1.15 -2.07,-3.75 -5.6,-7.11 -9.2,-9.43 -0.03,-0.03 -0.08,-0.06 -0.11,-0.08l-1.67 -0.96c-0.03,-0.02 -0.08,-0.05 -0.12,-0.07l-3.88 -1.76c-0.52,-0.14 -0.28,-0.03 -0.74,-0.21l-3.97 -1.1c-2.08,-0.25 -8.81,-0.13 -9.56,-0.23 -0.73,-0.09 -0.83,-0.36 -1.71,-0.36l-37.45 0c-0.94,0 -2.42,0.56 -3.02,1.12 -0.45,0.43 -0.93,1.26 -0.93,1.89z"/>
   <path class="fil1" d="M1037.94 436.51l18.25 0 0 -71.69 16.18 0c9.38,0 18.55,5.35 23.14,13.37 0.44,0.77 0.81,1.35 1.17,2.22 2.43,6.02 2.6,7.45 2.6,13.95 0,5.03 -2.39,10.76 -5.16,14.6 -1.51,2.09 -2.88,3.35 -4.77,5.01 -3.81,3.35 -8.75,5.09 -13.95,5.8 -3.24,0.44 -5.57,0.55 -7.3,2.68 -0.81,0.99 -5.65,13.42 -5.7,14.06 8.47,0 15.82,0.12 22.5,-1.77 10.08,-2.86 17.7,-7.57 24.02,-15.31l2.53 -3.49c0.44,-0.73 0.79,-1.25 1.23,-1.97 2.54,-4.22 5.42,-12.37 5.42,-19.05 0,-8.68 -0.63,-14.26 -4.33,-21.64 -2.76,-5.51 -5.15,-8.24 -9.36,-12.46 -3.16,-3.18 -9.31,-6.81 -13.38,-8.45 -5.01,-2.02 -11.23,-3.73 -18.28,-3.73l-34.81 0 0 87.87z"/>
   <path class="fil1" d="M619.28 357.86c0,2.77 1.49,4.69 3.32,5.7 2.21,1.23 5.06,0.88 8.34,0.88 9.1,0 18.19,0 27.29,0 3.8,0 5.45,-0.03 8.3,0.92 1.22,0.4 2.03,0.86 3.03,1.49 5.85,3.66 6.96,13.45 0.36,18.32 -2.8,2.07 -6.31,2.79 -11.13,2.79l-39.51 0 0 48.55 18.25 0 0 -33.5 16.56 0c2.61,0 4.36,1.75 5.39,3.83 2.97,6 6.46,12.36 9.47,18.38 0.74,1.47 4.09,8.31 4.84,9.08 0.83,0.85 1.51,1.5 2.8,1.91 2.28,0.71 14.76,0.3 18.33,0.3l-2.32 -4.45c-0.43,-0.88 -0.76,-1.39 -1.19,-2.2 -0.45,-0.83 -0.76,-1.61 -1.2,-2.38l-2.44 -4.52c-0.4,-0.81 -0.74,-1.39 -1.19,-2.2l-7.15 -13.55c-0.75,-1.5 -3.42,-5.91 -3.52,-7.02 0.94,-0.08 2.56,-1.1 3.33,-1.56 7.65,-4.56 13.42,-12.45 13.42,-22.15 0,-8.36 -2.65,-15.41 -8.78,-20.56 -5.4,-4.54 -12.72,-7.28 -20.38,-7.28l-44.22 0 0 9.22z"/>
   <path class="fil1" d="M744.59 372.34c0,4.9 -0.12,8.33 2.23,12.83 1.32,2.52 3,4.46 5.14,6.15 8.71,6.92 23.88,7.29 35.11,9.67 5.48,1.16 12.28,3.52 12.28,10.12 0,8.87 -11.03,11.1 -18.06,11.1 -6.27,0 -12.64,-2.18 -18.07,-4.89 -0.5,-0.26 -1,-0.51 -1.5,-0.76 -5.92,-2.93 -7.41,-5.54 -12.31,-2.14l-8.2 8.16c0.34,0.23 0.65,0.41 0.98,0.71 0.4,0.36 0.52,0.55 0.98,0.91 5.68,4.45 9.09,6.82 16.26,9.7 4.95,1.99 12.43,3.92 18.29,3.92 1.31,0 2.08,0.31 3.56,0.18 0.91,-0.07 2.52,-0.09 3.53,-0.23 5.08,-0.68 6.85,-0.62 12.26,-2.41 9.24,-3.07 16.01,-8.32 19.15,-17.92 1.02,-3.13 1.01,-5.86 1.01,-9.16 0,-12.87 -10.01,-19.52 -21.16,-21.93 -6.88,-1.49 -11.83,-2.06 -18.47,-3.17 -6.89,-1.15 -18,-3.34 -15.48,-12.5 1.72,-6.22 10.44,-7.37 16.53,-7.37 10.4,0 21.23,7.15 24.09,7.15 3.04,0 6.65,-3.75 8.61,-5.69 0.28,-0.28 0.49,-0.46 0.74,-0.76 0.32,-0.38 0.31,-0.46 0.66,-0.84l2.78 -3.06 -3.38 -2.44c-0.39,-0.28 -0.42,-0.34 -0.88,-0.63 -10.63,-6.52 -19.95,-9.53 -33.56,-9.53 -7.96,0 -16.2,2.04 -22.65,6.32 -5.93,3.92 -10.47,11.04 -10.47,18.51z"/>
   <path class="fil0" d="M740.45 563.14c-5.3,0 -10.88,-1.49 -15,-4.57 -3.62,-2.7 -6.41,-6.06 -8.22,-10.4 -5.33,-12.77 -1.01,-28.11 12.43,-34.58 7.42,-3.57 18.46,-2.62 24.96,2.27 1.59,1.2 1.9,1.36 3.48,2.92 2.24,2.22 3.72,4.9 5.06,7.73 2.97,6.29 2.55,14.99 0.12,21.26 -1.01,2.59 -2.99,5.81 -5,7.8 -4.79,4.74 -10.53,7.57 -17.83,7.57zm-0.56 15.24c12.9,0 23.52,-5.36 30.06,-11.9 3.23,-3.23 4.48,-4.71 6.9,-8.71 3.54,-5.86 5.54,-13.58 5.43,-20.57 -0.12,-8.68 -2.63,-17.08 -7.44,-23.49 -3.87,-5.16 -5.64,-6.6 -10.62,-10.27 -1,-0.74 -2.21,-1.4 -3.26,-2.01 -5.69,-3.3 -14.25,-5.27 -20.88,-5.27 -10.14,0 -19.56,3.49 -26.94,9.38 -0.5,0.4 -0.97,0.74 -1.43,1.2 -0.57,0.57 -0.84,0.72 -1.41,1.22 -0.94,0.83 -1.56,1.72 -2.45,2.63 -2.09,2.16 -5.02,6.99 -6.1,9.52 -0.53,1.23 -1.04,2.24 -1.49,3.59 -1.02,3 -2.15,7.79 -2.14,11.03 0.01,1.14 -0.18,1.37 -0.2,2.44 -0.04,2.13 0.69,7.39 1.09,9.27 0.64,2.99 1.51,5.22 2.57,7.78 1.16,2.79 3.94,7.11 6.09,9.53 1.75,1.96 3.24,3.47 5.25,5.1 2.87,2.31 6.25,4.43 9.71,5.91 4.81,2.05 10.49,3.62 17.26,3.62z"/>
   <path class="fil0" d="M1072.19 537.55c0,-5.32 1.55,-10.99 4.22,-14.97 1.7,-2.54 2.45,-3.31 4.48,-5.12 0.65,-0.58 0.99,-0.91 1.76,-1.44 12.78,-8.82 30.55,-4.89 37.46,9.93 2.95,6.34 3.21,16.17 0.06,22.52 -1.83,3.68 -3.38,6.07 -6.54,8.88 -1.47,1.3 -3.95,2.84 -5.8,3.61 -10.14,4.23 -20.88,2.33 -28.54,-5.3 -4.38,-4.35 -7.1,-11.78 -7.1,-18.11zm-16.94 -2.07c0,7.81 0.71,13.09 4.02,19.7 0.62,1.25 1.09,2.14 1.78,3.29l3.1 4.42c0.44,0.54 0.73,0.95 1.21,1.43 1.13,1.1 1.97,2.29 3.79,3.74 0.5,0.41 0.87,0.75 1.34,1.11 0.94,0.72 1.88,1.45 2.94,2.14 2.13,1.39 4.16,2.49 6.6,3.55 13.39,5.83 29.26,4.29 41.27,-3.62 0.99,-0.66 1.95,-1.39 2.93,-2.16 0.5,-0.39 1.01,-0.76 1.44,-1.18 0.59,-0.57 0.78,-0.72 1.4,-1.24 2.11,-1.76 5.38,-6.28 6.8,-8.63 0.65,-1.07 1.33,-2.22 1.84,-3.44 0.54,-1.3 1.01,-2.24 1.46,-3.61 0.45,-1.35 0.93,-2.74 1.2,-4.07 2.01,-9.6 1.47,-18 -2.52,-26.54l-1.7 -3.39c-0.64,-1.15 -1.31,-2.14 -2.05,-3.21 -4.12,-5.97 -10.75,-11.13 -17.44,-13.99 -8.54,-3.65 -16.94,-4.53 -26.59,-2.61 -7.11,1.42 -15.18,5.5 -20.07,10.42 -0.89,0.89 -1.66,1.64 -2.54,2.53 -5.57,5.62 -10.21,16.87 -10.21,25.36z"/>
   <path class="fil0" d="M646.94 148.81l-0.57 0c-0.11,-1.37 -1.96,-1.93 -1.07,-2.34 0.33,-0.14 1.09,0.39 1.29,0.61 0.46,0.51 0.35,0.85 0.35,1.73zm22.75 -28.98l13.24 0c0.13,0.01 0.22,0.02 0.29,0.04l1.13 0.37c0.53,0.12 1.16,0.07 1.89,0.18 0.79,0.1 0.74,0.39 1.55,0.51 0.78,0.12 1.13,0.04 1.76,0.32 0.45,0.2 0.15,0.2 0.76,0.37 0.41,0.12 0.44,0.04 0.81,0.12 0.72,0.15 0.23,0.08 0.81,0.33 1.17,0.52 2.5,0.84 3.66,1.42l2.76 1.38c1.15,0.56 5.5,3.46 5.79,4.56 -0.32,0.47 -0.57,0.63 -1.2,0.87l-3.31 0.82c-0.82,0.07 -1.87,0.16 -1.45,0.89 0.39,0.69 1.07,0.75 1.07,1.37 0,0.62 -0.12,0.85 -0.59,1.1l-1.69 0.95c-0.74,0.48 -1.25,0.76 -1.86,-0.36l-0.78 -1.48c-0.02,-0.04 -0.04,-0.09 -0.06,-0.13l-0.67 -1.59c-0.96,-0.08 -1.13,-0.09 -1.72,0.35l-1.19 0.69c-0.72,0.44 -0.46,0.09 -0.66,0.66 1.62,0 2.44,-0.47 2.64,0.74l0.62 2.78c0.46,2.58 0.03,1.05 -3.83,1.37 -0.22,0.94 -0.71,1.79 -0.34,2.58 0.41,0.83 1.25,0.93 1.47,1.75 -0.82,0.43 -0.55,0.31 -1.69,0.37 -1.42,0.08 -2.1,0.75 -3.07,1.64 -0.06,0.05 -0.3,0.26 -0.3,0.26 -1.04,0.98 -1.48,2.57 -2.79,3.24 -0.88,0.44 -1.63,0.88 -2.21,1.74l-3.33 7.95c-0.15,0.53 -0.34,0.8 -0.34,1.54l0.7 3.07 1.14 2.05c0.02,0.05 0.09,0.21 0.12,0.26 0.21,0.44 1.18,1.83 1.5,2.07 0.19,0.14 2.3,0.83 2.56,0.83 3.83,0 3.62,-1.87 6.69,1.21 0.7,0.7 -0.55,-0.47 0.2,0.18 1.73,1.52 1.2,1.13 1.2,4.07 0,0.81 -0.38,0.76 -0.38,1.32 0,0.76 0.59,1.56 0.7,2.3 0.46,3.09 0.62,0.42 0.62,5.41 0,0.64 -1.03,2.78 -1.41,3.29 -0.09,0.11 -0.26,0.3 -0.26,0.31 -0.03,0.03 -0.06,0.07 -0.09,0.1 -0.02,0.03 -0.05,0.08 -0.07,0.11 -0.17,0.28 -0.43,1.06 -0.43,1.46l0.56 6.78c0.16,0.84 0.39,1 0.39,2.05 0,2.15 0.38,2.48 0.66,4.24 0.2,1.26 -0.07,0.98 0.89,1.56 0.74,0.44 0.68,0.57 1.64,0.8 -0.02,1.07 -0.46,1.3 -1.34,1.48l-3.98 1.29c-1.03,0.15 -1.33,0.42 -2.06,0.57 -0.5,0.1 -0.91,0 -1.41,0.1 -0.37,0.06 -0.52,0.18 -0.99,0.32 -2.23,0.66 -5.02,0.57 -7.34,0.57 -1.64,0 -2.72,-0.21 -4.14,-0.2 -1.42,0.02 -2.58,-0.06 -3.66,-0.48 -0.95,-0.37 -0.92,-0.15 -1.94,-0.31 -0.61,-0.1 -0.92,-0.36 -1.58,-0.49l-10.36 -4.32c-0.47,-0.27 -0.85,-0.51 -1.26,-0.81 -0.48,-0.35 -0.72,-0.56 -0.94,-1.13 -0.21,-0.54 -0.58,-1.05 -0.58,-1.48 0,-0.92 0.26,-1.56 0.56,-2.45 0.26,-0.8 2.88,-4.08 3.63,-5.22l1.42 -2.34c0.02,-0.04 0.05,-0.08 0.07,-0.12l0.63 -1.06c0.28,-0.47 0.12,-0.24 0.28,-0.66 1.19,-3.18 1.67,-0.98 3.16,-3.61l1.35 -5.05c0.09,-0.71 0.34,-0.99 0.6,-1.66 0.18,-0.46 0.12,-0.32 0.39,-0.74 0.18,-0.29 0.33,-0.16 0.33,-0.61 0,-1.19 0.22,-1.11 -0.37,-1.71 -0.01,0 -0.38,-0.3 -0.42,-0.33 -0.48,-0.37 -0.45,-0.29 -0.92,-0.59 -1.8,-1.12 -2.26,-1.09 -4.28,-1.73 -0.91,-0.29 -2.29,0.19 -2.29,-0.73 0,-2.69 0.51,-3.48 -3.01,-4.7l-4.36 -2.8c-2.65,-1.33 -6.13,-3.58 -7.93,0.3l-0.89 2.31c-0.39,1.03 -0.94,3.18 -0.94,4.14 0,2.98 -0.07,2.06 0.62,4.47 0.23,0.8 0.88,1.66 1.37,2.38l1.18 1.47c1.88,2.15 4.36,3.6 4.36,6.92l0 9.22c0,0.44 -0.31,0.76 -0.75,0.76 -1.2,0 -3.71,-3.08 -4.46,-4.2l-0.67 -0.83c-0.14,-0.18 -0.43,-0.63 -0.53,-0.79l-0.77 -1.3c-0.02,-0.04 -0.05,-0.09 -0.07,-0.12l-2.14 -4.26c-0.51,-1.11 -1.42,-3.06 -1.69,-4.15 -0.14,-0.58 -0.04,-0.62 -0.28,-1.22 -0.81,-1.98 -1.06,-4.24 -1.49,-5.48 -0.41,-1.2 -0.16,-1.37 -0.37,-2.63 -0.11,-0.73 -0.48,-1.29 -0.52,-2.3l0 -9.79 0.7 -3.45 2.4 -4.37c0.39,-0.42 0.1,-0.4 0.85,-0.46 0.69,1.43 -0.14,8.67 0.39,10.88 0.61,0.07 2.25,0.7 2.25,-0.34 0,-1.26 -1.32,-1.12 -1.32,-2.07 0,-0.97 -0.11,-0.81 0.32,-1.57l0.21 -0.36c0.49,-0.95 1.03,-1.36 1.43,-2.33 0.44,-1.09 0.87,-1.09 -0.2,-2.21 -0.57,-0.61 -0.44,-0.07 -0.44,-1.25 0.54,-0.14 0.48,-0.29 0.84,-0.67l1.79 -2.15c-1.32,0.11 -2.42,1.25 -3.76,0.94 0,-1.07 0.07,-0.64 0.28,-1.42l0.71 -1.92 2.68 -3.15c2.25,-1.24 3.94,-1.16 6.3,0.09l0 1.7c0.69,-0.06 0.72,-0.22 1.24,-0.65l4.09 -3.06c0.4,-0.29 0.2,-0.12 0.59,-0.35l4.81 -2.34c0.68,-0.29 1.51,-0.14 2.23,-0.4 0.68,-0.25 0.39,-0.29 1.34,-0.36l7.15 -0.75c0,-2.29 -0.75,-3.28 -0.75,-6.21 0.65,-0.43 1.24,-0.55 1.32,-1.5 -0.54,-0.15 -0.24,-0.1 -0.59,-0.36l-0.41 -0.33c-0.04,-0.03 -0.08,-0.06 -0.12,-0.08 -1.32,-0.88 -2.51,-1.3 -4.34,-1.3 -1.66,0 -2.36,0.45 -3.81,-0.14 -0.39,-0.15 -0.38,-0.23 -0.8,-0.34 -0.41,-0.1 -0.48,-0.03 -0.84,-0.11 -0.85,-0.17 -0.92,-0.9 -0.26,-1.34l2.21 -1c0.06,-0.03 0.2,-0.1 0.26,-0.13l2.3 -0.9c0.27,-0.09 0.5,-0.11 0.78,-0.15 1.08,-0.18 1.03,-0.41 1.72,-0.55 0.69,-0.14 1.29,-0.07 1.85,-0.21 0.73,-0.19 0.4,-0.17 0.83,-0.3 0.24,-0.07 0.32,-0.09 0.45,-0.1zm-2.05 3.39c1.17,0 2.3,0.56 3.43,0.7 0.92,0.12 1.06,-0.02 1.84,0.23 1.97,0.62 2.53,0.25 3.58,0.57 1.99,0.59 1.35,0.38 3.56,0.57 0.93,0.08 0.86,0.38 1.55,0.52 0.56,0.11 1.32,0.03 1.96,0.11 0.77,0.1 1.39,-0.01 1.27,0.56 -0.1,0.5 -1.21,1.11 -1.66,1.36 -1.6,0.89 -4.47,0.95 -6.13,1.21 -1.18,0.18 -0.82,0.56 -1.69,0.56 -0.41,0 -0.16,0.23 -0.89,-0.8 -0.9,-1.26 -3.25,-3.78 -4.63,-4.21 -1.2,-0.39 -2.03,-0.08 -2.19,-1.38z"/>
   <path class="fil1" d="M309.1 532.09c0.37,2.04 -0.13,4.82 0.11,6.94 0.46,4.04 0.16,29.69 0.16,35.59 0,2.81 -0.63,4.7 1.86,5.3 0.96,0.23 27.67,0.33 31.83,0.16 1.19,-0.05 1.82,-0.55 2.25,-1.33 0.46,-0.83 0.59,-1.89 0.86,-2.71 0.19,-0.54 0.29,-0.35 0.48,-1.21 0.6,-2.71 2.82,-8.98 3.88,-11.74l5.43 -12.82c0.1,-0.3 0.06,-0.28 0.19,-0.57l2.84 -5.62c0.24,-0.4 0.02,0 0.21,-0.36 0.13,-0.26 0.15,-0.34 0.31,-0.63 0.24,-0.43 0.34,-0.66 0.58,-1.11 0.21,-0.38 0.15,-0.2 0.36,-0.58 0.13,-0.24 0.19,-0.41 0.31,-0.64l1.01 -1.62c0.13,-0.23 0.19,-0.41 0.31,-0.63 0.12,-0.25 0.41,-0.79 0.6,-1.09l5.53 -8.77c0.3,-0.42 0.55,-0.7 0.8,-1.08 0.27,-0.43 0.37,-0.58 0.68,-1.02l7.96 -10.29c0.11,-0.15 0.14,-0.21 0.23,-0.34 0.19,-0.27 0.16,-0.24 0.4,-0.53l0.61 -0.71c0.04,-0.04 0.14,-0.16 0.18,-0.2l6.81 -7.49c0.45,-0.44 0.45,-0.51 0.93,-0.95l2.37 -2.34c0.02,-0.02 0.06,-0.07 0.09,-0.09l0.27 -0.29c0.03,-0.03 0.07,-0.07 0.1,-0.09l0.19 -0.19c0.03,-0.03 0.07,-0.06 0.1,-0.09 0.22,-0.21 0.24,-0.23 0.47,-0.47l4.75 -4.28c1.33,-1.18 4.02,-3.35 5.08,-4.52 0.54,-0.6 1.01,-0.8 1.34,-1.52 -1.07,0.02 -1.89,0.75 -2.93,1.24l-10.95 5.62c-0.45,0.26 -0.86,0.52 -1.33,0.74l-3.62 1.66c-0.56,0.29 -0.14,0.12 -0.56,0.36l-8.46 3.97c-1.58,0.84 -2.07,0.83 -2.89,1.25l-9.38 4.19c-0.54,0.35 -0.18,0.15 -0.52,0.41l-7.36 2.97c-1.1,0.34 -1.56,0.93 -2.8,1.29 -1,0.29 -0.72,0.45 -1.39,0.65 -0.49,0.15 -0.45,0.03 -0.95,0.24 -0.33,0.14 -0.25,0.18 -0.6,0.32l-2.32 0.91c-0.38,0.18 -0.06,0.02 -0.37,0.21 -1.13,0.73 -0.17,0.06 -1.4,0.62 -1.33,0.61 -1.02,0.22 -1.91,0.57l-11.99 4.59c-1.04,0.37 -2.01,0.86 -2.97,1.16l-12.82 4.85c-0.78,0.38 -2.67,0.7 -3.86,1.25l-1.09 0.86z"/>
   <path class="fil0" d="M670.27 553.54c0,2.26 -0.22,3.97 -1.75,5.79 -2.91,3.46 -9.55,4.75 -14.43,4.75 -5.24,0 -9.76,-1.46 -13.5,-3.06 -1.76,-0.75 -3.98,-1.79 -5.54,-2.73 -6.54,-3.98 -7.81,-3.71 -13.75,2.17l-3.53 3.81c0.49,0.72 2.39,2.22 3.18,2.85 14.93,11.93 39.17,15.66 55.5,5.02 6.3,-4.11 10.19,-11.28 10.19,-19.35 0,-9.19 -4.27,-15.33 -12.23,-18.82 -11.11,-4.87 -27.02,-4.27 -33.74,-8.02 -2.35,-1.31 -4.27,-3.4 -4.27,-6.27 0,-3.18 1.77,-5.23 4.21,-6.7 3.32,-2.01 8.02,-2.15 11.78,-2.15 8.59,0 18.2,6.4 21.08,6.4 2.48,0 5.1,-2.56 6.44,-3.9 0.89,-0.9 1.66,-1.65 2.55,-2.54 0.53,-0.54 0.68,-0.88 1.21,-1.42 0.48,-0.48 0.92,-0.82 1.28,-1.36 -0.67,-1 -5.36,-3.93 -6.65,-4.64 -2.11,-1.15 -5.58,-2.86 -7.86,-3.62 -5.71,-1.9 -13.12,-3.77 -19.37,-3.23 -4.25,0.37 -5.21,-0.05 -10.12,1.18 -8.72,2.19 -15.96,6.48 -19.09,15.34 -1.27,3.6 -0.86,4.92 -1.19,7.29 -0.21,1.48 0.48,5.71 0.94,7.36 4.04,14.34 23.57,14.39 34.88,16.68 4.7,0.95 13.78,2.58 13.78,9.17z"/>
   <path class="fil0" d="M1241.91 519.86c0,10.07 3.45,15.92 12.85,19.71 2.41,0.97 5.25,1.77 8.02,2.33 8.25,1.65 20.76,2.21 26.39,6.72 4.42,3.55 4.21,15.46 -13.77,15.46 -8.57,0 -14.19,-3.21 -20.7,-6.58 -4.51,-2.34 -5.76,-3.37 -11.05,1.93 -0.74,0.74 -4.18,4.18 -4.75,5.03l3.33 2.69c8.84,7.18 20.73,11.23 32.23,11.23 11.19,0 24.74,-4.05 30.1,-13.36 4.14,-7.18 4.65,-17.93 -0.47,-24.73l-1.61 -1.78c-3.92,-4.09 -9.83,-5.89 -15.37,-7.21 -5.52,-1.31 -11.95,-1.83 -17.72,-2.98 -5.2,-1.04 -11.86,-2.7 -11.86,-8.83 0,-1.64 0.61,-3.12 1.37,-4.09 0.91,-1.16 1.71,-1.76 2.96,-2.49 3.39,-1.98 7.56,-2.08 11.66,-2.08 8.25,0 18.74,6.4 20.89,6.4 1.63,0 2.8,-0.74 3.84,-1.43 1.07,-0.71 2,-1.49 2.88,-2.38l5.13 -5.6 -5.49 -3.73c-10.01,-6.45 -26.16,-9.37 -37.79,-6.62 -1.64,0.39 -3.33,0.78 -4.83,1.37 -0.8,0.32 -1.41,0.5 -2.18,0.84 -0.78,0.33 -1.38,0.67 -2.15,1.05 -1.32,0.66 -2.66,1.55 -3.76,2.45 -2.98,2.42 -5.23,5.15 -6.62,8.81 -0.29,0.76 -0.57,1.62 -0.78,2.41 -0.41,1.55 -0.75,3.52 -0.75,5.46z"/>
   <path class="fil0" d="M859.94 542.44c0,5.55 0.96,11.09 2.52,15.17 0.9,2.34 1.77,3.97 2.92,5.92 1.11,1.87 2.43,3.37 3.9,4.95 8.92,9.65 24.82,11.66 37.36,8.44 2.06,-0.53 4.42,-1.42 6.3,-2.36 6.48,-3.27 11.88,-8.76 14.58,-15.53 1.54,-3.87 2.98,-8.9 2.98,-14.33l0 -41.77c0,-1.28 -0.81,-2.69 -1.71,-3.56 -1.07,-1.03 -2.33,-1.71 -4.31,-1.71l-10.54 0 0 46.1c0,7.21 -3.55,14.84 -10.29,17.74 -9.68,4.17 -22.45,0.83 -26.09,-11.46 -0.8,-2.69 -1.06,-5.89 -1.06,-9.29l0 -43.09 -16.56 0 0 44.78z"/>
   <path class="fil0" d="M1153.66 577.07l16.75 0 0 -52.69c0.69,0.46 17.55,24.75 19.49,27.55 0.49,0.71 0.92,1.32 1.39,1.99l12.53 17.77c1,1.38 1.59,2.59 3.01,3.57 1.22,0.84 3.05,1.77 4.97,1.81 4.45,0.11 9.08,0 13.55,0 -0.15,-0.59 -3.17,-4.54 -3.57,-5.08 -1.25,-1.66 -2.37,-3.3 -3.66,-5 -5.58,-7.41 -11.09,-15.54 -16.53,-22.8l-30.04 -44.09c-1.27,-1.26 -3.71,-2.63 -6.22,-2.63l-11.67 0 0 79.6z"/>
   <path class="fil0" d="M940.47 512.15l26.91 0 0 64.92 16.56 0 0 -64.92 20.7 0c4.15,0 5.22,-3.29 6.29,-5.94 0.61,-1.54 1.09,-2.76 1.69,-4.33l1.8 -4.41 -73.95 0 0 14.68z"/>
   <path class="fil0" d="M796.53 577.07l50.8 0c3.9,0 4.97,-3.49 5.94,-5.92 0.44,-1.09 3.26,-7.73 3.28,-8.76l-43.46 0 0 -59.84c0,-2.43 -2.81,-5.08 -5.27,-5.08l-11.29 0 0 79.6z"/>
   <path class="fil1" d="M853.54 390.41l4.41 5.38c0.53,0.67 0.99,1.15 1.53,1.85l7.38 8.99c4.2,4.82 12.14,14.77 16.37,19.95l7.38 8.99c0.8,1.08 0.66,0.96 2.44,0.94l19.95 0 -2.4 -2.87c-0.87,-0.97 -1.58,-1.85 -2.44,-2.83 -0.46,-0.51 -0.76,-0.89 -1.23,-1.41 -0.31,-0.35 -0.28,-0.39 -0.57,-0.74l-1.83 -2.13c-0.42,-0.54 -0.82,-0.94 -1.29,-1.53 -0.24,-0.3 -0.38,-0.39 -0.63,-0.68l-13.37 -15.79c-0.25,-0.29 -0.4,-0.39 -0.64,-0.68l-11.03 -13.06c-0.25,-0.29 -0.39,-0.38 -0.64,-0.68 -0.3,-0.34 -0.26,-0.38 -0.58,-0.74 -0.84,-0.94 -1.81,-1.95 -2.49,-2.96l32.6 -36.46c0.74,-0.8 4.19,-4.43 4.66,-5.31 -3.48,0 -15.35,-0.37 -18.18,0.45 -3.28,0.94 -6.47,5.07 -9.06,7.87l-8.08 9.04c-0.66,0.67 -0.94,0.92 -1.53,1.67l-4.41 4.81c-0.64,0.64 -0.9,1.1 -1.5,1.7l-2.97 3.24c-0.48,0.65 -0.9,0.96 -1.46,1.55l-8.84 9.79c-0.58,0.58 -0.89,1.2 -1.55,1.65z"/>
   <polygon class="fil1" points="832.09,436.51 850.34,436.51 850.34,348.64 832.09,348.64 "/>
   <path class="fil1" d="M707.9 436.51l18.25 0 0 -81.85c0,-3.07 -2.94,-6.02 -6.02,-6.02l-12.23 0 0 87.87z"/>
   <path class="fil0" d="M1024.2 577.07l16.56 0 0 -73.58c0,-1.94 -0.63,-3.18 -1.64,-4.19 -0.98,-0.98 -2.13,-1.83 -4,-1.83l-10.92 0 0 79.6z"/>
   <path class="fil1" d="M1237.58 436.51l63.98 0c2,0 3.36,-0.96 4.38,-2.02 1.7,-1.77 4.31,-11.13 5.59,-13.79l-73.95 0 0 15.81z"/>
   <path class="fil1" d="M950.63 436.51l63.98 0c1.74,0 3.53,-1.07 4.38,-2.02 1.01,-1.15 1.46,-2.78 2.04,-4.35 0.4,-1.07 3.28,-8.44 3.36,-9.44l-73.76 0 0 15.81z"/>
   <path class="fil1" d="M1237.58 364.44l62.85 0c2.04,0 3.69,-0.8 4.76,-1.83 1.5,-1.45 3.45,-6.95 4.35,-9.19l1.99 -4.78 -73.95 0 0 15.8z"/>
   <path class="fil1" d="M950.63 364.44l62.85 0c2.89,0 4.85,-1.4 6.09,-3.88l3.91 -9.45c0.23,-0.57 0.86,-1.84 0.91,-2.47l-73.76 0 0 15.8z"/>
   <path class="fil0" d="M1208.79 544.89c0,0.45 3.51,5.06 4.03,5.75 0.77,1.02 1.33,1.79 2.07,2.83 1.1,1.52 9.9,13.68 10.65,14.19l0 -70.19 -16.75 0 0 47.42z"/>
   <path class="fil1" d="M1237.58 384.95l0 15.43 45.16 0c2.21,0 4.07,-0.46 5.23,-1.55 1.52,-1.42 1.73,-2.12 2.57,-4.2 0.67,-1.7 1.26,-3.15 1.93,-4.84 0.35,-0.86 0.66,-1.64 0.97,-2.42 0.34,-0.86 0.76,-1.7 0.97,-2.61l-42.72 0c-4.89,0 -9.4,0.19 -14.11,0.19z"/>
   <path class="fil1" d="M950.63 384.95l0 15.43 45.35 0c5,0 6.29,-2.53 7.69,-6.05 0.68,-1.71 1.29,-3.23 1.99,-4.97 0.35,-0.89 0.61,-1.53 0.96,-2.42 0.6,-1.48 1.19,-2.18 0.27,-2.18l-47.04 0c-3.3,0 -5.93,0.19 -9.22,0.19z"/>
   <path class="fil0" d="M711.48 152.57l1 5.21c0.3,0.68 0.27,1.62 0.52,2.3 0.13,0.34 0.35,0.64 0.46,1.05 0.15,0.56 0.04,0.72 0.22,1.28 0.61,1.85 1.37,3.57 3.15,4.57 1.75,0.98 4.25,-0.43 2.89,1.93 -0.46,0.8 -0.63,1.58 -1.2,2.37 -0.59,0.81 0.43,-0.6 -0.16,0.22 -0.17,0.23 -0.21,0.32 -0.38,0.56l-3.76 3.38c-1.72,1.13 -3.61,2.6 -4.08,4.77 -0.22,0.99 -0.54,1.66 -0.55,2.83 -0.01,1.39 0.33,3.13 -0.28,4.43 -0.2,0.42 -0.09,0.14 -0.29,0.47 -0.02,0.03 -0.05,0.08 -0.07,0.11 -0.65,1.12 -1.99,1.65 -3.03,2.43 -1.29,0.97 -0.75,1.32 -1.31,2.64l-0.12 0.26c-0.01,0.04 -0.04,0.09 -0.05,0.13 -0.49,1.22 -1.2,2.09 -2.06,3.02 -0.73,0.78 -1.73,2.06 -2,3.08 0.94,0.23 0.92,0.14 1.82,-0.43 4.23,-2.7 9.51,-7.79 12.3,-12.16 0.16,-0.25 0.23,-0.32 0.38,-0.57 0.14,-0.22 0.2,-0.37 0.35,-0.59l2.34 -4.24c0.02,-0.04 0.04,-0.09 0.06,-0.13l0.83 -1.8c0.25,-0.77 -0.05,0.04 0.3,-0.65 0.51,-0.98 0.95,-2.8 1.37,-3.89 0.26,-0.67 0.1,-0.69 0.27,-1.43 0.31,-1.32 0.46,-0.9 0.7,-2.87 0.15,-1.22 0.55,-1.46 0.54,-3.04 -0.01,-1.18 0.43,-1.95 0.19,-3.01 -0.73,-0.18 -0.69,0.01 -1.26,0.25 -0.04,0.02 -0.09,0.04 -0.13,0.06 -0.48,0.15 -1.1,0.07 -1.62,0.07 -0.13,-0.2 -0.29,-0.45 -0.46,-0.68 -0.25,-0.31 -0.42,-0.41 -0.57,-0.75 -0.17,-0.39 -0.11,-0.55 -0.31,-1l-1.17 -2.97c-0.02,-0.04 -0.04,-0.09 -0.05,-0.13 -0.02,-0.04 -0.05,-0.09 -0.07,-0.13 -0.18,-0.39 -0.03,0.05 -0.27,-0.48l-2.57 -5.71c-0.4,-0.79 -0.21,-1.67 -1.68,-1.7 -0.1,0.42 -0.19,0.43 -0.19,0.94z"/>
   <path class="fil0" d="M694.73 141.47l2.75 0.83c3.25,0.67 -0.51,-0.17 1.58,2.93 0.26,0.38 0.55,0.63 1.01,0.87 0.77,0.39 0.56,0.05 1.29,0.59 1.11,0.82 2.88,0.94 4.28,0.98 1.92,0.06 0.69,0.21 2.24,0.59l3.55 1.16c0.88,0.4 1.54,0.48 1.76,-0.41 0.15,-0.59 -0.14,-0.96 -0.63,-1.29l-4.67 -2.85c-0.6,-0.39 -0.32,-0.12 -0.86,-0.65 -0.19,-0.2 -0.2,-0.22 -0.37,-0.38l-0.19 -0.19c-0.03,-0.03 -0.07,-0.06 -0.09,-0.09 -0.03,-0.03 -0.07,-0.06 -0.1,-0.09 -0.22,-0.21 -0.17,-0.16 -0.38,-0.38l-2.25 -2.64c-0.9,-1.09 -0.58,-0.87 -1.01,-0.81 -1.62,0.23 2.63,3.32 0.18,3.52 -0.01,-0.63 -0.19,-1.2 -0.39,-1.67 -0.15,-0.34 -0.14,-0.32 -0.35,-0.6 -0.03,-0.03 -0.06,-0.07 -0.09,-0.1 -0.86,-1.06 -0.87,-0.98 -1.89,-1.5 -2.2,-1.11 -4.75,-0.5 -5.37,2.18z"/>
   <path class="fil0" d="M709.6 142.6c0,0.99 0.83,0.95 1.67,1.33l1.55 0.53c0.94,0.23 2.1,1.53 2.99,0.21 -0.2,-0.73 -1.67,-1.53 -2.28,-1.86l-2.8 -1.53c-0.35,0.23 -1.13,0.79 -1.13,1.32z"/>
   <path class="fil0" d="M703.39 135.07c0.9,0 0.97,-0.22 1.63,-0.43 0.56,-0.18 1.36,-0.19 1.94,-0.32 -0.03,-1.29 -0.69,-1.69 -1.02,-2.37 -0.16,-0.32 -0.13,-0.49 -0.3,-0.83 -0.81,0.07 -1.05,0.45 -1.37,1.07 -0.02,0.04 -0.03,0.1 -0.05,0.13 -0.02,0.04 -0.04,0.1 -0.06,0.14 -0.28,0.57 -1.74,2.61 -0.77,2.61z"/>
  </g>
 </g>
</svg>
